<?xml version="1.0" encoding="utf-8"?>
<!-- Generator: Adobe Illustrator 12.0.0, SVG Export Plug-In . SVG Version: 6.00 Build 51448)  -->
<!DOCTYPE svg PUBLIC "-//W3C//DTD SVG 1.1//EN" "http://www.w3.org/Graphics/SVG/1.1/DTD/svg11.dtd" [
	<!ENTITY ns_svg "http://www.w3.org/2000/svg">
	<!ENTITY ns_xlink "http://www.w3.org/1999/xlink">
]>
<svg  version="1.1" id="No_Pissing" xmlns="&ns_svg;" xmlns:xlink="&ns_xlink;" width="652" height="652" viewBox="0 0 652 652"
	 style="overflow:visible;enable-background:new 0 0 652 652;" xml:space="preserve">
<style type="text/css">
<![CDATA[
	.st0{fill:#1B181C;}
	.st1{fill:#DF222B;}
	.st2{fill:none;stroke:#1B181C;stroke-width:6;}
]]>
</style>
<g>
	<rect x="376.6" y="188.1" class="st0" width="28.3" height="198.4"/>
	<rect x="410.4" y="188.1" class="st0" width="29.9" height="361.1"/>
	<path class="st0" d="M440.3,188.2c-24.9,0-37.9,0-63.7,0c0-17.6,14.3-31.8,31.8-31.8C426.1,156.3,440.3,170.6,440.3,188.2z"/>
	<circle class="st0" cx="364.4" cy="134.2" r="35.6"/>
	<g>
		<path class="st2" d="M370.7,369.6c2.3-0.4,4.6-0.8,7-1.1c2.3-0.3,4.6-0.6,6.9-0.8"/>
		<path class="st2" d="M346.4,376c2.2-0.7,4.5-1.4,6.8-2.1c2.2-0.6,4.5-1.2,6.7-1.8"/>
		<path class="st2" d="M323.1,385.8c2.1-1,4.2-2,6.4-3c2.1-0.9,4.3-1.9,6.4-2.7"/>
		<path class="st2" d="M301.4,398.6c1.9-1.3,3.9-2.6,5.9-3.9c2-1.2,4-2.4,6-3.6"/>
		<path class="st2" d="M281.8,414.4c1.7-1.6,3.5-3.1,5.3-4.6c1.8-1.5,3.6-3,5.4-4.4"/>
		<path class="st2" d="M264.5,432.7c1.5-1.8,3-3.6,4.6-5.3c1.6-1.7,3.1-3.4,4.8-5.1"/>
		<path class="st2" d="M249.9,453.3c1.2-2,2.5-4,3.8-5.9c1.3-1.9,2.6-3.8,4-5.7"/>
		<path class="st2" d="M238.4,475.7c0.9-2.1,1.9-4.3,3-6.4c1-2.1,2.1-4.2,3.2-6.2"/>
		<path class="st2" d="M230,499.5c0.6-2.3,1.3-4.5,2.1-6.8c0.7-2.2,1.5-4.4,2.3-6.6"/>
		<path class="st2" d="M225.1,524.2c0.3-2.3,0.7-4.7,1.1-7c0.4-2.3,0.9-4.6,1.3-6.8"/>
		<path class="st2" d="M223.7,549.4c0-2.3,0-4.7,0.1-7.1c0.1-2.3,0.2-4.6,0.4-6.9"/>
	</g>
</g>
<g>
	<g>
		<g>
			<path class="st1" d="M326,0C146,0,0,146,0,326c0,180,146,326,326,326c180,0,326-146,326-326C652,146,506,0,326,0z M326,584.3
				C183.3,584.3,67.7,468.6,67.7,326C67.7,183.3,183.3,67.7,326,67.7c142.7,0,258.3,115.6,258.3,258.3
				C584.3,468.6,468.6,584.3,326,584.3z"/>
		</g>
	</g>
	<polygon class="st1" points="164.2,113.3 113.3,164.2 487.8,538.7 538.7,487.8 	"/>
</g>
</svg>
