<svg xmlns="http://www.w3.org/2000/svg" width="100" height="100" viewBox="0 0 300 300">
<title>queue- clipart</title>
        <path d="M289.3 81.7c-0.1-13-10.7-23.6-23.7-23.6h-26.9 -0.1 -17.6c5.9 6.8 9.4 15.6 9.5 25.3l0.4 81c0.1 11.7-8.2 21.3-19 23.6v62.5c0 6.6 5.4 12 12 12 6.6 0 12-5.4 12-12v-96.2h5.2v96.2c0 6.6 5.4 12 12 12s12-5.4 12-12c0-159.3-0.2-67.9-0.2-168.8 0-1.2 0.9-2.1 2.1-2.1s2.1 0.9 2.1 2.1c0 0.1 0 0.2 0 0.3l0.4 73.7c0 5.5 4.5 10 10 10 0 0 0 0 0.1 0 5.5 0 10-4.5 10-10.1L289.3 81.7z" fill="#333"/>
		<circle cx="238" cy="30" r="21" fill="#333"/>
        <path d="M217.9 164.4l-0.4-81c-0.1-14.3-11.8-25.9-26.1-25.9 -2.2 0-58.2 0-59.5 0 6.6 7.3 10.7 16.9 10.7 27.5l0.4 87.2c0 8.5-4.2 16-10.7 20.5v76.1c0 7.3 5.9 13.2 13.2 13.2s13.2-5.9 13.2-13.2V163.1h5.7v105.7c0 7.3 5.9 13.2 13.2 13.2s13.2-5.9 13.2-13.2c0-174.9-0.2-74.7-0.2-185.3 0-1.3 1-2.3 2.3-2.3 1.3 0 2.3 1 2.3 2.3 0 0 0 0 0 0.1l0.4 81c0 6.1 5 11 11 11 0 0 0 0 0.1 0C213.1 175.5 218 170.5 217.9 164.4z" fill="#666"/>
		<circle cx="162" cy="28" r="23" fill="#666"/>		
        <path d="M101.6 57.1c-6.6 0-57.1 0-63.8 0 -15.4 0-28 12.5-28.1 28l-0.4 87.2c0 6.4 5 11.7 11.5 11.9 0.1 0 0.2 0 0.3 0 0 0 0 0 0.1 0 6.5 0 11.8-5.3 11.9-11.8l0.4-87.2v0c0-1.3 1-2.3 2.3-2.3 1.3 0 2.3 1 2.3 2.3l0 199.6c0 7.9 6.4 14.3 14.3 14.3 7.9 0 14.3-6.4 14.3-14.3v-113.9h6.2v113.9c0 7.8 6.3 14.3 14.3 14.3 7.9 0 14.3-6.4 14.3-14.3 0-51-0.2-146.3-0.3-199.6 0-1.4 1.1-2.5 2.5-2.5 1.4 0 2.5 1.1 2.5 2.5l0.4 87.2c0 6.5 5.3 11.8 11.9 11.8 0 0 0 0 0.1 0 6.5 0 11.8-5.4 11.8-11.9l-0.4-87.2C129.7 69.7 117.1 57.1 101.6 57.1z" fill="#999"/>
		<circle cx="70" cy="26" r="25" fill="#999"/>
</svg>
